# xmcd
#
# Track frame offsets:
#	150
#	54826
#	103244
#	123354
#	150069
#	189324
#	208103
#	222262
#	234086
#	257457
#	276669
#
# Disc length: 4019 seconds
#
# Revision: 1
# Processed by: cddbd v1.4PL0 Copyright (c) Steve Scherf et al.
# Submitted via: EasyCDDAExtractor 5.1.0
#
DISCID=900fb10b
DTITLE=俞\遜發 - 大師集13 俞\遜發笛子專輯
DYEAR=1900
DGENRE=國樂
TTITLE0=匯流
TTITLE1=秋湖月夜
TTITLE2=姑蘇行
TTITLE3=掛紅燈
TTITLE4=瑯玡神韻
TTITLE5=牧民新歌
TTITLE6=收割
TTITLE7=賣菜
TTITLE8=菪x秋思
TTITLE9=遠方的思念
TTITLE10=沙場
EXTD=
EXTT0=
EXTT1=
EXTT2=
EXTT3=
EXTT4=
EXTT5=
EXTT6=
EXTT7=
EXTT8=
EXTT9=
EXTT10=
PLAYORDER=
